<svg width="28" height="28" viewBox="0 0 28 28" fill="none" xmlns="http://www.w3.org/2000/svg">
<path d="M14 0.666992C6.657 0.693992 0.714005 6.65299 0.714005 14C0.714005 19.599 4.16601 24.393 9.057 26.368L9.146 26.4C9.013 25.347 8.919 23.733 9.186 22.573L10.746 15.946C10.746 15.946 10.346 15.146 10.346 13.973C10.346 12.12 11.426 10.746 12.773 10.746C13.906 10.746 14.466 11.599 14.466 12.613C14.466 13.76 13.733 15.466 13.346 17.053C13.026 18.386 14.013 19.466 15.333 19.466C17.706 19.466 19.52 16.973 19.52 13.373C19.52 10.173 17.227 7.95999 13.947 7.95999C13.871 7.95599 13.783 7.95399 13.694 7.95399C10.505 7.95399 7.921 10.539 7.921 13.727C7.921 13.729 7.921 13.731 7.921 13.733C7.921 14.88 8.361 16.106 8.908 16.773C9.015 16.906 9.028 17.026 8.988 17.16L8.615 18.667C8.562 18.907 8.415 18.974 8.175 18.854C6.49501 18.067 5.455 15.654 5.455 13.681C5.455 9.48099 8.522 5.62799 14.282 5.62799C18.895 5.62799 22.509 8.90799 22.509 13.321C22.509 17.921 19.602 21.614 15.576 21.614C14.243 21.614 12.963 20.907 12.536 20.081L11.696 23.241C11.265 24.578 10.704 25.739 10.008 26.804L10.042 26.748C11.212 27.12 12.558 27.335 13.953 27.335C21.317 27.335 27.286 21.365 27.286 14.002C27.286 6.65499 21.344 0.695992 14.004 0.668992H14.001L14 0.666992Z" fill="white"/>
</svg>
