<svg width="33" height="33" viewBox="0 0 33 33" fill="none" xmlns="http://www.w3.org/2000/svg">
<path d="M14.6194 0.554108C14.4044 0.570108 14.0014 0.621108 13.7234 0.667108C6.72642 1.82611 1.46642 7.15211 0.353419 14.2051C0.267419 14.7511 0.245419 17.9101 0.323419 18.5391C1.15442 25.2351 6.38842 30.8411 13.0544 32.1751C14.9564 32.5551 17.3614 32.5681 19.2134 32.2071C27.9494 30.5041 33.5394 22.2461 31.9214 13.4351C30.6934 6.74911 25.1364 1.53111 18.2524 0.598108C17.7754 0.533108 15.2854 0.503108 14.6194 0.553108V0.554108ZM17.4574 2.52311C27.6884 3.50311 33.4994 14.7421 28.3194 23.5331C25.8464 27.7301 21.1714 30.4961 16.5504 30.4981H16.2004V2.47411H16.5704C16.7734 2.47411 17.1734 2.49611 17.4584 2.52411L17.4574 2.52311Z" fill="#BDAE82"/>
</svg>
